<svg xmlns="http://www.w3.org/2000/svg" viewBox="0 0 390 208">
    <defs id="SvgjsDefs1131"></defs>
    <g id="SvgjsG1132" featurekey="rootContainer" transform="matrix(1,0,0,1,0,0)" fill="transparent">
        <rect xmlns="http://www.w3.org/2000/svg" width="390" height="208" rx="10" ry="10"></rect>
    </g>
    
    <g id="SvgjsG1133" featurekey="symbolFeature-0" transform="matrix(1.5559705169038713,0,0,1.5559705169038713,117.20147563869556,-12.616253809143373)" fill="#fff">
        <g xmlns="http://www.w3.org/2000/svg">
            <path d="M93.487,20.962H6.512c-0.828,0-1.5,0.671-1.5,1.5v10.845V77.54c0,0.828,0.672,1.5,1.5,1.5h86.976   c0.828,0,1.5-0.672,1.5-1.5V33.307V22.462C94.987,21.633,94.315,20.962,93.487,20.962z M8.012,23.962h83.976v7.845H8.012V23.962z    M8.012,76.04V34.807h83.976V76.04H8.012z"></path>
            <path d="M35.986,42.651H21.211c-0.467,0-0.906,0.218-1.19,0.588c-2.724,3.554-4.163,7.782-4.163,12.228   c0,4.408,1.416,8.604,4.095,12.135c0.284,0.374,0.726,0.594,1.195,0.594h14.839c0.829,0,1.5-0.672,1.5-1.5V44.151   C37.486,43.323,36.815,42.651,35.986,42.651z M34.486,65.195H21.911c-2-2.876-3.054-6.225-3.054-9.729   c0-3.538,1.073-6.916,3.112-9.815h12.517V65.195z"></path>
            <path d="M78.788,42.651H64.013c-0.828,0-1.5,0.672-1.5,1.5v22.544c0,0.828,0.672,1.5,1.5,1.5h14.839   c0.469,0,0.911-0.22,1.195-0.593c2.679-3.53,4.095-7.727,4.095-12.136c0-4.446-1.439-8.674-4.163-12.228   C79.694,42.869,79.255,42.651,78.788,42.651z M78.088,65.195H65.513V45.651h12.517c2.039,2.898,3.112,6.276,3.112,9.815   C81.142,58.972,80.088,62.319,78.088,65.195z"></path>
        </g>
    </g>
    
    <g id="SvgjsG1134" featurekey="nameFeature-0" transform="matrix(1.969920444331386,0,0,1.969920444331386,15.256760351022619,107.62170818603903)" fill="#fff">
        <path d="M10.24 40.64 c-3.28 0 -8.28 -1.44 -7.8 -3.2 l0.4 -1.48 c1.12 -4.2 2.44 1.96 9.04 1.96 c3.36 0 5 -1.64 5 -3.96 c0 -1.88 -1.2 -2.68 -4.04 -4.44 l-3.88 -2.44 c-4.32 -2.72 -6.08 -4.4 -6.08 -7.4 c0 -4.92 4.8 -8.32 9.76 -8.32 c3.04 0 6.92 1.32 6.48 2.68 l-0.48 1.52 c-1.24 3.88 -2.24 -1.48 -7.72 -1.48 c-2.84 0 -4.32 1.44 -4.32 3.56 c0 1.8 1.08 2.8 3.76 4.44 l4.2 2.6 c4.24 2.64 5.96 4.44 5.96 7.32 c0 5 -4.92 8.64 -10.28 8.64 z M39.28 40.64 c-5.64 0 -11.96 -3 -11.96 -11.12 l0 -12.56 c0 -2.52 -1.28 -3.36 -3.24 -3.6 c-0.32 -0.04 -0.08 -1.36 0.24 -1.36 l10.92 0 c0.32 0 0.56 1.32 0.24 1.36 c-1.6 0.2 -3.2 0.8 -3.2 3.6 l0 12.76 c0 5.6 3.24 8.2 7.48 8.2 c4.36 0 7.84 -2.6 7.84 -8.2 l0 -12.76 c0 -2.6 -1.48 -3.32 -3.44 -3.6 c-0.28 -0.04 -0.08 -1.36 0.24 -1.36 l9 0 c0.28 0 0.52 1.32 0.2 1.36 c-1.6 0.2 -3.2 0.8 -3.2 3.6 l0 12.52 c0 7.36 -4.76 11.16 -11.12 11.16 z M80.56 20.48 c0 7.12 -6.68 10.12 -15.52 8.8 l0 5.76 c0 2.8 1.92 3.28 4.48 3.6 c0.28 0.04 0.08 1.36 -0.24 1.36 l-12.12 0 c-0.32 0 -0.56 -1.32 -0.24 -1.36 c2.04 -0.28 3.32 -1.08 3.32 -3.6 l0 -17.84 c0 -2.64 -1.4 -3.4 -3.32 -3.92 c-0.32 -0.08 -0.12 -1.4 0.24 -1.36 c1.56 0.2 3.32 0.24 4.6 0.24 c2.96 0 5.44 -0.24 7.48 -0.24 c6.2 0 11.32 2.28 11.32 8.56 z M68.24 14 c-2.52 0 -3.2 0.88 -3.2 3.2 l0 10.12 c6.8 0.96 10.36 -0.68 10.36 -5.92 c0 -4.76 -3.04 -7.4 -7.16 -7.4 z M83.96000000000001 40.08 c-0.4 0.04 -0.56 -1.36 -0.24 -1.44 c2.32 -0.6 4.12 -0.96 4.12 -3.92 l0 -17.76 c0 -2.56 -1.64 -3.24 -3.36 -3.68 c-0.32 -0.08 -0.12 -1.4 0.2 -1.36 c2.92 0.32 7.96 0.24 10.4 0.24 c3.64 0 6.28 -0.16 9.56 -0.24 c0.96 0 0.96 0.64 0.76 1.56 l-0.96 3.8 c-0.12 0.56 -1.12 0.56 -1.28 0 c-0.6 -1.96 -1.8 -3.08 -6.8 -3.08 c-2.8 0 -3.72 0.72 -3.72 2.8 l0 6.52 c0 1.04 0.52 1.24 1.32 1.24 l0.88 0 c3.24 0 6.04 -0.32 7.68 -1.8 c0.4 -0.36 1.28 -0.28 0.92 0.52 l-2.28 5.04 c-0.32 0.72 -0.92 0.64 -1.36 0.04 c-0.92 -1.28 -2.96 -1.8 -5.28 -1.8 l-0.56 0 c-0.8 0 -1.32 0.2 -1.32 1.24 l0 6.72 c0 2.28 0.96 3.12 4.28 3.12 c6.04 0 8.44 -2.76 9.4 -4.28 c0.28 -0.44 1.36 -0.24 1.36 0.44 c0 2.04 -1.72 6.08 -4.24 6.08 c-2.24 -0.12 -4.44 -0.24 -7.8 -0.24 c-3.68 0 -8.04 -0.12 -11.68 0.24 z M140.28 39 c0.32 0 0.24 1.08 0 1.16 c-2.52 0.84 -6 0.72 -8.4 -2.36 l-6.16 -7.92 c-1.72 -2.24 -3.76 -2.56 -6.56 -2.6 l0 7.76 c0 2.8 1.92 3.28 4.48 3.6 c0.28 0.04 0.08 1.36 -0.24 1.36 l-12.12 0 c-0.32 0 -0.56 -1.32 -0.24 -1.36 c2.04 -0.28 3.32 -1.08 3.32 -3.6 l0 -17.84 c0 -2.64 -1.4 -3.4 -3.32 -3.92 c-0.32 -0.08 -0.12 -1.4 0.24 -1.36 c1.56 0.2 3.32 0.24 4.6 0.24 c2.96 0 5.72 -0.24 7.64 -0.24 c6.04 0 10.08 2.48 10.08 7.4 c0 4.64 -3.76 6.92 -7.12 7.12 l0 0.2 c1.6 0 2.76 0.68 4.52 2.88 l5.96 7.48 c1.24 1.56 2.44 2 3.32 2 z M120.32 25.439999999999998 c5.96 0 8.24 -1.04 8.24 -5.04 c0 -4.28 -2.72 -6.4 -6.28 -6.4 c-2.36 0 -3.12 0.96 -3.12 3.2 l0 8.24 l1.16 0 z M144.36 31.68 c-0.72 0.12 -0.96 -2.4 -0.24 -2.52 l11.28 -1.84 c0.72 -0.12 0.96 2.4 0.24 2.52 z M173.68 24.240000000000002 c3.24 1.88 6.4 4.08 6.4 8.48 c0 5.24 -4.56 7.92 -9.64 7.92 c-5.12 0 -9.56 -2.68 -9.56 -7.68 c0 -3.84 2.72 -6.4 5.52 -7.92 c-2.28 -1.64 -4.04 -3.72 -4.04 -6.8 c0 -4.44 3.72 -6.88 8.12 -6.88 c4.44 0 8.08 2.56 8.08 6.48 c0 2.92 -2 4.92 -4.88 6.4 z M170.48000000000002 13.64 c-2.64 0 -3.8 1.88 -3.8 3.76 c0 2.68 2.36 4.24 5.12 5.8 c1.84 -1.68 2.76 -3.64 2.76 -5.44 c0 -2.28 -1.44 -4.12 -4.08 -4.12 z M170.56 38.32 c3.2 0 4.92 -2.56 4.92 -4.8 c0 -3.32 -3.8 -5.04 -7.32 -7.28 c-1.52 1.24 -2.84 3.08 -2.84 5.96 c0 3.44 1.92 6.12 5.24 6.12 z"></path>
    </g>
</svg>
